<mxfile host="app.diagrams.net" modified="2023-09-06T01:12:50.346Z" agent="Mozilla/5.0 (Windows NT 10.0; Win64; x64) AppleWebKit/537.36 (KHTML, like Gecko) Chrome/116.0.0.0 Safari/537.36 Edg/116.0.1938.62" etag="dCaZNp3u1BDz7txmSJL6" version="21.7.2" type="github">
  <diagram name="Página-1" id="qlV0NotxAdIq0pxh73rS">
    <mxGraphModel dx="1672" dy="513" grid="0" gridSize="10" guides="1" tooltips="1" connect="1" arrows="1" fold="1" page="0" pageScale="1" pageWidth="827" pageHeight="1169" math="0" shadow="0">
      <root>
        <mxCell id="0" />
        <mxCell id="1" parent="0" />
        <mxCell id="4LNo2_8gGkQybe7jXva_-12" value="" style="rounded=0;whiteSpace=wrap;html=1;fontSize=16;" vertex="1" parent="1">
          <mxGeometry x="-517" y="125" width="640" height="321" as="geometry" />
        </mxCell>
        <mxCell id="4LNo2_8gGkQybe7jXva_-2" value="Medios de Transmisión" style="rounded=1;whiteSpace=wrap;html=1;fontSize=16;" vertex="1" parent="1">
          <mxGeometry x="-45" y="162" width="120" height="60" as="geometry" />
        </mxCell>
        <mxCell id="4LNo2_8gGkQybe7jXva_-3" value="Servidores" style="rounded=1;whiteSpace=wrap;html=1;fontSize=16;" vertex="1" parent="1">
          <mxGeometry x="-265" y="162" width="120" height="60" as="geometry" />
        </mxCell>
        <mxCell id="4LNo2_8gGkQybe7jXva_-4" value="Solicitud de Clientes" style="rounded=1;whiteSpace=wrap;html=1;fontSize=16;" vertex="1" parent="1">
          <mxGeometry x="-469" y="162" width="120" height="60" as="geometry" />
        </mxCell>
        <mxCell id="4LNo2_8gGkQybe7jXva_-6" value="TASA % SOLICITUDES DE CLIENTES" style="rounded=1;whiteSpace=wrap;html=1;fontSize=16;" vertex="1" parent="1">
          <mxGeometry x="-471" y="327" width="120" height="60" as="geometry" />
        </mxCell>
        <mxCell id="4LNo2_8gGkQybe7jXva_-7" value="TASA % DEL USO DE MEDIOS DE TRASMISION&lt;br&gt;" style="rounded=1;whiteSpace=wrap;html=1;fontSize=16;" vertex="1" parent="1">
          <mxGeometry x="-51" y="313" width="143" height="100" as="geometry" />
        </mxCell>
        <mxCell id="4LNo2_8gGkQybe7jXva_-8" value="" style="endArrow=classic;startArrow=classic;html=1;rounded=0;fontSize=12;startSize=8;endSize=8;curved=1;exitX=1;exitY=0.5;exitDx=0;exitDy=0;entryX=0;entryY=0.5;entryDx=0;entryDy=0;" edge="1" parent="1" source="4LNo2_8gGkQybe7jXva_-4" target="4LNo2_8gGkQybe7jXva_-3">
          <mxGeometry width="50" height="50" relative="1" as="geometry">
            <mxPoint x="-277" y="294" as="sourcePoint" />
            <mxPoint x="-227" y="244" as="targetPoint" />
          </mxGeometry>
        </mxCell>
        <mxCell id="4LNo2_8gGkQybe7jXva_-9" value="" style="endArrow=classic;startArrow=classic;html=1;rounded=0;fontSize=12;startSize=8;endSize=8;curved=1;exitX=1;exitY=0.5;exitDx=0;exitDy=0;entryX=0;entryY=0.5;entryDx=0;entryDy=0;" edge="1" parent="1" source="4LNo2_8gGkQybe7jXva_-3" target="4LNo2_8gGkQybe7jXva_-2">
          <mxGeometry width="50" height="50" relative="1" as="geometry">
            <mxPoint x="-140" y="201" as="sourcePoint" />
            <mxPoint x="-56" y="193" as="targetPoint" />
          </mxGeometry>
        </mxCell>
        <mxCell id="4LNo2_8gGkQybe7jXva_-10" value="" style="endArrow=classic;startArrow=classic;html=1;rounded=0;fontSize=12;startSize=8;endSize=8;curved=1;entryX=0.5;entryY=1;entryDx=0;entryDy=0;exitX=0.5;exitY=0;exitDx=0;exitDy=0;" edge="1" parent="1" source="4LNo2_8gGkQybe7jXva_-6" target="4LNo2_8gGkQybe7jXva_-4">
          <mxGeometry width="50" height="50" relative="1" as="geometry">
            <mxPoint x="-414" y="324" as="sourcePoint" />
            <mxPoint x="-364" y="274" as="targetPoint" />
          </mxGeometry>
        </mxCell>
        <mxCell id="4LNo2_8gGkQybe7jXva_-11" value="" style="endArrow=classic;startArrow=classic;html=1;rounded=0;fontSize=12;startSize=8;endSize=8;curved=1;entryX=0.5;entryY=1;entryDx=0;entryDy=0;exitX=0.455;exitY=0.02;exitDx=0;exitDy=0;exitPerimeter=0;" edge="1" parent="1" source="4LNo2_8gGkQybe7jXva_-7" target="4LNo2_8gGkQybe7jXva_-2">
          <mxGeometry width="50" height="50" relative="1" as="geometry">
            <mxPoint x="5" y="346" as="sourcePoint" />
            <mxPoint x="7" y="241" as="targetPoint" />
          </mxGeometry>
        </mxCell>
      </root>
    </mxGraphModel>
  </diagram>
</mxfile>
